<svg xmlns="http://www.w3.org/2000/svg" width="1000" height="406"><rect width="100%" height="100%" fill="white"/><text x="24" y="24" font-family="Arial" font-size="16" font-weight="bold">2025 selected-model probability by district</text>
<text x="24" y="59" font-family="Arial" font-size="11">Alipurduar</text><rect x="220" y="45" width="700" height="18" fill="#e2e8f0"/><rect x="220" y="45" width="190.2" height="18" fill="#0f766e"/><text x="940" y="59" font-family="Arial" font-size="10">0.2717</text>
<text x="24" y="87" font-family="Arial" font-size="11">Bankura</text><rect x="220" y="73" width="700" height="18" fill="#e2e8f0"/><rect x="220" y="73" width="201.6" height="18" fill="#0f766e"/><text x="940" y="87" font-family="Arial" font-size="10">0.2880</text>
<text x="24" y="115" font-family="Arial" font-size="11">Birbhum_Suri</text><rect x="220" y="101" width="700" height="18" fill="#e2e8f0"/><rect x="220" y="101" width="195.8" height="18" fill="#0f766e"/><text x="940" y="115" font-family="Arial" font-size="10">0.2797</text>
<text x="24" y="143" font-family="Arial" font-size="11">Cooch_Behar</text><rect x="220" y="129" width="700" height="18" fill="#e2e8f0"/><rect x="220" y="129" width="191.0" height="18" fill="#0f766e"/><text x="940" y="143" font-family="Arial" font-size="10">0.2728</text>
<text x="24" y="171" font-family="Arial" font-size="11">Hooghly</text><rect x="220" y="157" width="700" height="18" fill="#e2e8f0"/><rect x="220" y="157" width="199.0" height="18" fill="#0f766e"/><text x="940" y="171" font-family="Arial" font-size="10">0.2843</text>
<text x="24" y="199" font-family="Arial" font-size="11">Jalpaiguri</text><rect x="220" y="185" width="700" height="18" fill="#e2e8f0"/><rect x="220" y="185" width="191.7" height="18" fill="#0f766e"/><text x="940" y="199" font-family="Arial" font-size="10">0.2738</text>
<text x="24" y="227" font-family="Arial" font-size="11">Jhargram</text><rect x="220" y="213" width="700" height="18" fill="#e2e8f0"/><rect x="220" y="213" width="209.0" height="18" fill="#0f766e"/><text x="940" y="227" font-family="Arial" font-size="10">0.2986</text>
<text x="24" y="255" font-family="Arial" font-size="11">Murshidabad</text><rect x="220" y="241" width="700" height="18" fill="#e2e8f0"/><rect x="220" y="241" width="185.1" height="18" fill="#0f766e"/><text x="940" y="255" font-family="Arial" font-size="10">0.2644</text>
<text x="24" y="283" font-family="Arial" font-size="11">Nadia</text><rect x="220" y="269" width="700" height="18" fill="#e2e8f0"/><rect x="220" y="269" width="185.5" height="18" fill="#0f766e"/><text x="940" y="283" font-family="Arial" font-size="10">0.2650</text>
<text x="24" y="311" font-family="Arial" font-size="11">Purba_Bardhaman</text><rect x="220" y="297" width="700" height="18" fill="#e2e8f0"/><rect x="220" y="297" width="194.1" height="18" fill="#0f766e"/><text x="940" y="311" font-family="Arial" font-size="10">0.2773</text>
<text x="24" y="339" font-family="Arial" font-size="11">Purulia</text><rect x="220" y="325" width="700" height="18" fill="#e2e8f0"/><rect x="220" y="325" width="208.3" height="18" fill="#0f766e"/><text x="940" y="339" font-family="Arial" font-size="10">0.2976</text>
<text x="24" y="367" font-family="Arial" font-size="11">Siliguri_Foothill</text><rect x="220" y="353" width="700" height="18" fill="#e2e8f0"/><rect x="220" y="353" width="186.5" height="18" fill="#0f766e"/><text x="940" y="367" font-family="Arial" font-size="10">0.2665</text></svg>