<svg xmlns="http://www.w3.org/2000/svg" width="1000" height="600"><rect width="100%" height="100%" fill="white"/><text x="28" y="38" font-family="Arial" font-size="14" font-weight="bold">Reliability</text>
<rect x="20" y="20" width="300" height="250" fill="none" stroke="#cbd5e1"/>
<text x="358" y="38" font-family="Arial" font-size="14" font-weight="bold">Probability histogram</text>
<rect x="350" y="20" width="300" height="250" fill="none" stroke="#cbd5e1"/>
<text x="688" y="38" font-family="Arial" font-size="14" font-weight="bold">ROC / PR</text>
<rect x="680" y="20" width="300" height="250" fill="none" stroke="#cbd5e1"/>
<text x="28" y="328" font-family="Arial" font-size="14" font-weight="bold">Brier</text>
<rect x="20" y="310" width="300" height="250" fill="none" stroke="#cbd5e1"/>
<circle cx="52.6" cy="218.2" r="4" fill="#2563eb"/>
<circle cx="83.6" cy="189.9" r="4" fill="#2563eb"/>
<circle cx="105.8" cy="156.1" r="4" fill="#2563eb"/>
<circle cx="129.0" cy="146.6" r="4" fill="#2563eb"/>
<circle cx="154.2" cy="111.6" r="4" fill="#2563eb"/>
<circle cx="175.3" cy="125.8" r="4" fill="#2563eb"/>
<circle cx="193.3" cy="180.4" r="4" fill="#2563eb"/>
<rect x="365" y="94.2" width="20" height="150.8" fill="#94a3b8"/>
<rect x="392" y="238.6" width="20" height="6.4" fill="#94a3b8"/>
<rect x="419" y="240.2" width="20" height="4.8" fill="#94a3b8"/>
<rect x="446" y="239.6" width="20" height="5.4" fill="#94a3b8"/>
<rect x="473" y="239.1" width="20" height="5.9" fill="#94a3b8"/>
<rect x="500" y="239.3" width="20" height="5.7" fill="#94a3b8"/>
<rect x="527" y="243.9" width="20" height="1.1" fill="#94a3b8"/>
<rect x="554" y="245.0" width="20" height="0.0" fill="#94a3b8"/>
<rect x="581" y="245.0" width="20" height="0.0" fill="#94a3b8"/>
<rect x="608" y="245.0" width="20" height="0.0" fill="#94a3b8"/>
<polyline points="690.0,245.0 690.8,245.0 691.5,245.0 692.3,243.6 693.1,243.6 693.8,242.9 694.6,242.9 695.4,242.2 696.2,242.2 696.9,241.5 697.7,241.5 698.5,238.1 699.2,238.1 700.0,237.4 700.8,237.4 701.5,236.7 702.3,236.7 703.1,236.0 703.8,236.0 704.6,233.2 705.4,233.2 706.2,232.5 706.9,232.5 707.7,231.8 708.5,231.8 709.2,230.4 710.0,230.4 710.8,229.1 711.5,229.1 712.3,228.4 713.1,228.4 713.8,227.0 714.6,227.0 715.4,226.3 716.2,226.3 716.9,225.6 717.7,225.6 718.5,224.9 719.2,224.9 720.0,222.1 720.8,222.1 721.5,221.4 722.3,221.4 723.1,220.7 723.8,220.7 724.6,220.0 725.4,220.0 726.2,218.6 726.9,218.6 727.7,217.3 728.5,217.3 729.2,215.9 730.0,215.9 730.8,212.4 731.5,212.4 732.3,211.7 733.1,211.7 733.8,210.3 734.6,210.3 735.4,208.9 736.2,208.9 736.9,207.6 737.7,207.6 738.5,206.9 739.2,206.9 740.0,206.2 740.8,206.2 741.5,205.5 742.3,205.5 743.1,204.8 743.8,204.8 744.6,204.1 745.4,204.1 746.2,203.4 746.9,203.4 747.7,202.7 748.5,202.7 749.2,201.3 750.0,201.3 750.8,196.5 751.5,196.5 752.3,195.1 753.1,195.1 753.8,193.0 754.6,193.0 755.4,192.3 756.2,192.3 756.9,190.9 757.7,190.9 758.5,190.2 759.2,190.2 760.0,188.1 760.8,188.1 761.5,186.8 762.3,186.8 763.1,186.1 763.8,186.1 764.6,184.0 765.4,184.0 766.2,182.6 766.9,182.6 767.7,179.8 768.5,179.8 769.2,179.1 770.0,179.1 770.8,177.0 771.5,177.0 772.3,175.7 773.1,175.7 773.8,175.0 774.6,175.0 775.4,172.9 776.2,172.9 776.9,170.8 777.7,170.8 778.5,169.4 779.2,169.4 780.0,167.3 780.8,167.3 781.5,165.3 782.3,165.3 783.1,162.5 783.8,162.5 784.6,161.8 785.4,161.8 786.2,161.1 786.9,161.1 787.7,160.4 788.5,160.4 789.2,158.3 790.0,158.3 790.8,156.9 791.5,156.9 792.3,155.5 793.1,155.5 793.8,154.9 794.6,154.9 795.4,154.2 796.2,154.2 796.9,152.1 797.7,152.1 798.5,149.3 799.2,149.3 800.0,148.6 800.8,148.6 801.5,147.9 802.3,147.9 803.1,147.2 803.8,147.2 804.6,146.5 805.4,146.5 806.2,145.8 806.9,145.8 807.7,145.1 808.5,145.1 809.2,144.5 810.0,144.5 810.8,143.1 811.5,143.1 812.3,142.4 813.1,142.4 813.8,141.7 814.6,141.7 815.4,141.0 816.2,141.0 816.9,138.9 817.7,138.9 818.5,138.2 819.2,138.2 820.0,136.8 820.8,136.8 821.5,136.1 822.3,136.1 823.1,134.7 823.8,134.7 824.6,134.1 825.4,134.1 826.2,133.4 826.9,133.4 827.7,132.7 828.5,132.7 829.2,132.0 830.0,132.0 830.8,131.3 831.5,131.3 832.3,129.9 833.1,129.9 833.8,129.2 834.6,129.2 835.4,127.8 836.2,127.8 836.9,125.7 837.7,125.7 838.5,125.0 839.2,125.0 840.0,124.3 840.8,124.3 841.5,122.3 842.3,122.3 843.1,121.6 843.8,121.6 844.6,120.9 845.4,120.9 846.2,119.5 846.9,119.5 847.7,118.8 848.5,118.8 849.2,118.1 850.0,118.1 850.8,117.4 851.5,117.4 852.3,116.0 853.1,116.0 853.8,115.3 854.6,115.3 855.4,114.6 856.2,114.6 856.9,113.2 857.7,113.2 858.5,112.6 859.2,112.6 860.0,111.2 860.8,111.2 861.5,110.5 862.3,110.5 863.1,109.1 863.8,109.1 864.6,107.0 865.4,107.0 866.2,103.5 866.9,103.5 867.7,102.2 868.5,102.2 869.2,101.5 870.0,101.5 870.8,100.8 871.5,100.8 872.3,100.1 873.1,100.1 873.8,98.7 874.6,98.7 875.4,98.0 876.2,98.0 876.9,95.2 877.7,95.2 878.5,94.5 879.2,94.5 880.0,93.8 880.8,93.8 881.5,93.1 882.3,93.1 883.1,92.4 883.8,92.4 884.6,91.8 885.4,91.8 886.2,91.1 886.9,91.1 887.7,90.4 888.5,90.4 889.2,89.7 890.0,89.7 890.8,89.0 891.5,89.0 892.3,88.3 893.1,88.3 893.8,87.6 894.6,87.6 895.4,86.9 896.2,86.9 896.9,86.2 897.7,86.2 898.5,85.5 899.2,85.5 900.0,84.8 900.8,84.8 901.5,82.7 902.3,82.7 903.1,82.0 903.8,82.0 904.6,81.4 905.4,81.4 906.2,80.7 906.9,80.7 907.7,80.0 908.5,80.0 909.2,79.3 910.0,79.3 910.8,78.6 911.5,78.6 912.3,77.9 913.1,77.9 913.8,76.5 914.6,76.5 915.4,75.8 916.2,75.8 916.9,75.1 917.7,75.1 918.5,74.4 919.2,74.4 920.0,73.7 920.8,73.7 921.5,73.0 922.3,73.0 923.1,72.3 923.8,72.3 924.6,70.9 925.4,70.9 926.2,70.3 926.9,70.3 927.7,69.6 928.5,69.6 929.2,68.9 930.0,68.9 930.8,68.2 931.5,68.2 932.3,67.5 933.1,67.5 933.8,66.1 934.6,66.1 935.4,65.4 936.2,65.4 936.9,64.7 937.7,64.7 938.5,64.0 939.2,64.0 940.0,63.3 940.8,63.3 941.5,62.6 942.3,62.6 943.1,61.9 943.8,61.9 944.6,61.2 945.4,61.2 946.2,60.5 946.9,60.5 947.7,59.9 948.5,59.9 949.2,59.2 950.0,59.2 950.8,58.5 951.5,58.5 952.3,57.8 953.1,57.8 953.8,57.1 954.6,57.1 955.4,56.4 956.2,56.4 956.9,55.7 957.7,55.7 958.5,55.0 959.2,55.0 960.0,55.0" fill="none" stroke="#dc2626" stroke-width="2"/>
<polyline points="690.0,55.0 690.1,55.0 690.1,55.0 690.2,55.0 690.3,55.0 690.3,55.0 690.4,55.0 690.5,55.0 690.6,55.0 690.6,55.0 690.7,55.0 690.8,55.0 690.8,55.0 690.9,55.0 691.0,55.0 691.0,55.0 691.1,55.0 691.2,55.0 691.3,55.0 691.3,55.0 691.4,55.0 691.5,55.0 691.5,55.0 691.6,55.0 691.7,55.0 691.7,55.0 691.8,55.0 691.9,55.0 691.9,55.0 692.0,55.0 692.1,55.0 692.2,55.0 692.2,55.0 692.3,55.0 692.4,55.0 692.4,55.0 692.5,55.0 692.6,55.0 692.6,55.0 692.7,55.0 692.8,55.0 692.9,55.0 692.9,55.0 693.0,55.0 693.1,55.0 693.1,55.0 693.2,55.0 693.3,55.0 693.3,55.0 693.4,55.0 693.5,55.0 693.6,55.0 693.6,55.0 693.7,55.0 693.8,55.0 693.8,55.0 693.9,55.0 694.0,55.0 694.0,55.0 694.1,55.0 694.2,55.0 694.2,55.0 694.3,55.0 694.4,55.0 694.5,55.0 694.5,55.0 694.6,55.0 694.7,55.0 694.7,55.0 694.8,55.0 694.9,55.0 694.9,55.0 695.0,55.0 695.1,55.0 695.2,55.0 695.2,55.0 695.3,55.0 695.4,55.0 695.4,55.0 695.5,55.0 695.6,55.0 695.6,55.0 695.7,55.0 695.8,55.0 695.8,55.0 695.9,55.0 696.0,55.0 696.1,55.0 696.1,55.0 696.2,55.0 696.3,55.0 696.3,55.0 696.4,55.0 696.5,55.0 696.5,55.0 696.6,55.0 696.7,55.0 696.8,55.0 696.8,55.0 696.9,55.0 697.0,55.0 697.0,55.0 697.1,55.0 697.2,55.0 697.2,55.0 697.3,55.0 697.4,55.0 697.4,55.0 697.5,55.0 697.6,55.0 697.7,55.0 697.7,55.0 697.8,55.0 697.9,55.0 697.9,55.0 698.0,55.0 698.1,55.0 698.1,55.0 698.2,55.0 698.3,55.0 698.4,55.0 698.4,55.0 698.5,55.0 698.6,55.0 698.6,55.0 698.7,55.0 698.8,55.0 698.8,55.0 698.9,55.0 699.0,55.0 699.1,55.0 699.1,55.0 699.2,55.0 699.3,55.0 699.3,55.0 699.4,55.0 699.5,55.0 699.5,55.0 699.6,55.0 699.7,55.0 699.7,55.0 699.8,55.0 699.9,55.0 700.0,55.0 700.0,55.0 700.1,55.0 700.2,55.0 700.2,55.0 700.3,55.0 700.4,55.0 700.4,55.0 700.5,55.0 700.6,55.0 700.7,55.0 700.7,55.0 700.8,55.0 700.9,55.0 700.9,55.0 701.0,55.0 701.1,55.0 701.1,55.0 701.2,55.0 701.3,55.0 701.3,55.0 701.4,55.0 701.5,55.0 701.6,55.0 701.6,55.0 701.7,55.0 701.8,55.0 701.8,55.0 701.9,55.0 702.0,55.0 702.0,55.0 702.1,55.0 702.2,55.0 702.3,55.0 702.3,55.0 702.4,55.0 702.5,55.0 702.5,55.0 702.6,55.0 702.7,55.0 702.7,55.0 702.8,55.0 702.9,55.0 702.9,55.0 703.0,55.0 703.1,55.0 703.2,55.0 703.2,55.0 703.3,55.0 703.4,55.0 703.4,55.0 703.5,55.0 703.6,55.0 703.6,55.0 703.7,55.0 703.8,55.0 703.9,55.0 703.9,55.0 704.0,55.0 704.1,55.0 704.1,55.0 704.2,55.0 704.3,55.0 704.3,55.0 704.4,55.0 704.5,55.0 704.6,55.0 704.6,55.0 704.7,55.0 704.8,55.0 704.8,55.0 704.9,55.0 705.0,55.0 705.0,55.0 705.1,55.0 705.2,55.0 705.2,55.0 705.3,55.0 705.4,55.0 705.5,55.0 705.5,55.0 705.6,55.0 705.7,55.0 705.7,55.0 705.8,55.0 705.9,55.0 705.9,55.0 706.0,55.0 706.1,55.0 706.2,55.0 706.2,55.0 706.3,55.0 706.4,55.0 706.4,55.0 706.5,55.0 706.6,55.0 706.6,55.0 706.7,55.0 706.8,55.0 706.8,55.0 706.9,55.0 707.0,55.0 707.1,55.0 707.1,55.0 707.2,55.0 707.3,55.0 707.3,55.0 707.4,55.0 707.5,55.0 707.5,55.0 707.6,55.0 707.7,55.0 707.8,55.0 707.8,55.0 707.9,55.0 708.0,55.0 708.0,55.0 708.1,55.0 708.2,55.0 708.2,55.0 708.3,55.0 708.4,55.0 708.5,55.0 708.5,55.0 708.6,55.0 708.7,55.0 708.7,55.0 708.8,55.0 708.9,55.0 708.9,55.0 709.0,55.0 709.1,55.0 709.1,55.0 709.2,55.0 709.3,55.0 709.4,55.0 709.4,55.0 709.5,55.0 709.6,55.0 709.6,55.0 709.7,55.0 709.8,55.0 709.8,55.0 709.9,55.0 710.0,55.0 710.1,55.0 710.1,55.0 710.2,55.0 710.3,55.0 710.3,55.0 710.4,55.0 710.5,55.0 710.5,55.0 710.6,55.0 710.7,55.0 710.7,55.0 710.8,55.0 710.9,55.0 711.0,55.0 711.0,55.0 711.1,55.0 711.2,55.0 711.2,55.0 711.3,55.0 711.4,55.0 711.4,55.0 711.5,55.0 711.6,55.0 711.7,55.0 711.7,55.0 711.8,55.0 711.9,55.0 711.9,55.0 712.0,55.0 712.1,55.0 712.1,55.0 712.2,55.0 712.3,55.0 712.3,55.0 712.4,55.0 712.5,55.0 712.6,55.0 712.6,55.0 712.7,55.0 712.8,55.0 712.8,55.0 712.9,55.0 713.0,55.0 713.0,55.0 713.1,55.0 713.2,55.0 713.3,55.0 713.3,55.0 713.4,55.0 713.5,55.0 713.5,55.0 713.6,55.0 713.7,55.0 713.7,55.0 713.8,55.0 713.9,55.0 714.0,55.0 714.0,55.0 714.1,55.0 714.2,55.0 714.2,55.0 714.3,55.0 714.4,55.0 714.4,55.0 714.5,55.0 714.6,55.0 714.6,55.0 714.7,55.0 714.8,55.0 714.9,55.0 714.9,55.0 715.0,55.0 715.1,55.0 715.1,55.0 715.2,55.0 715.3,55.0 715.3,55.0 715.4,55.0 715.5,55.0 715.6,55.0 715.6,55.0 715.7,55.0 715.8,55.0 715.8,55.0 715.9,55.0 716.0,55.0 716.0,55.0 716.1,55.0 716.2,55.0 716.2,55.0 716.3,55.0 716.4,55.0 716.5,55.0 716.5,55.0 716.6,55.0 716.7,55.0 716.7,55.0 716.8,55.0 716.9,55.0 716.9,55.0 717.0,55.0 717.1,55.0 717.2,55.0 717.2,55.0 717.3,55.0 717.4,55.0 717.4,55.0 717.5,55.0 717.6,55.0 717.6,55.0 717.7,55.0 717.8,55.0 717.8,55.0 717.9,55.0 718.0,55.0 718.1,55.0 718.1,55.0 718.2,55.0 718.3,55.0 718.3,55.0 718.4,55.0 718.5,55.0 718.5,55.0 718.6,55.0 718.7,55.0 718.8,55.0 718.8,55.0 718.9,55.0 719.0,55.0 719.0,55.0 719.1,55.0 719.2,55.0 719.2,55.0 719.3,55.0 719.4,55.0 719.5,55.0 719.5,55.0 719.6,55.0 719.7,55.0 719.7,55.0 719.8,55.0 719.9,55.0 719.9,55.0 720.0,55.0 720.1,55.0 720.1,55.0 720.2,55.0 720.3,55.0 720.4,55.0 720.4,55.0 720.5,55.0 720.6,55.0 720.6,55.0 720.7,55.0 720.8,55.0 720.8,55.0 720.9,55.0 721.0,55.0 721.1,55.0 721.1,55.0 721.2,55.0 721.3,55.0 721.3,55.0 721.4,55.0 721.5,55.0 721.5,55.0 721.6,55.0 721.7,55.0 721.7,55.0 721.8,55.0 721.9,55.0 722.0,55.0 722.0,55.0 722.1,55.0 722.2,55.0 722.2,55.0 722.3,55.0 722.4,55.0 722.4,55.0 722.5,55.0 722.6,55.0 722.7,55.0 722.7,55.0 722.8,55.0 722.9,55.0 722.9,55.0 723.0,55.0 723.1,55.0 723.1,55.0 723.2,55.0 723.3,55.0 723.3,55.0 723.4,55.0 723.5,55.0 723.6,55.0 723.6,55.0 723.7,55.0 723.8,55.0 723.8,55.0 723.9,55.0 724.0,55.0 724.0,55.0 724.1,55.0 724.2,55.0 724.3,55.0 724.3,55.0 724.4,55.0 724.5,55.0 724.5,55.0 724.6,55.0 724.7,55.0 724.7,55.0 724.8,55.0 724.9,55.0 725.0,55.0 725.0,55.0 725.1,55.0 725.2,55.0 725.2,55.0 725.3,55.0 725.4,55.0 725.4,55.0 725.5,55.0 725.6,55.0 725.6,55.0 725.7,55.0 725.8,55.0 725.9,55.0 725.9,55.0 726.0,55.0 726.1,55.0 726.1,55.0 726.2,55.0 726.3,55.0 726.3,55.0 726.4,55.0 726.5,55.0 726.6,55.0 726.6,55.0 726.7,55.0 726.8,55.0 726.8,55.0 726.9,55.0 727.0,55.0 727.0,55.0 727.1,55.0 727.2,55.0 727.2,55.0 727.3,55.0 727.4,55.0 727.5,55.0 727.5,55.0 727.6,55.0 727.7,55.0 727.7,55.0 727.8,55.0 727.9,55.0 727.9,55.0 728.0,55.0 728.1,55.0 728.2,55.0 728.2,55.0 728.3,55.0 728.4,55.0 728.4,55.0 728.5,55.0 728.6,55.0 728.6,55.0 728.7,55.0 728.8,55.0 728.8,55.0 728.9,55.0 729.0,55.0 729.1,55.0 729.1,55.0 729.2,55.0 729.3,55.0 729.3,55.0 729.4,55.0 729.5,55.0 729.5,55.0 729.6,55.0 729.7,55.0 729.8,55.0 729.8,55.0 729.9,55.0 730.0,55.0 730.0,55.0 730.1,55.0 730.2,55.0 730.2,55.0 730.3,55.0 730.4,55.0 730.5,55.0 730.5,55.0 730.6,55.0 730.7,55.0 730.7,55.0 730.8,55.0 730.9,55.0 730.9,55.0 731.0,55.0 731.1,55.0 731.1,55.0 731.2,55.0 731.3,55.0 731.4,55.0 731.4,55.0 731.5,55.0 731.6,55.0 731.6,55.0 731.7,55.0 731.8,55.0 731.8,55.0 731.9,55.0 732.0,55.0 732.1,55.0 732.1,55.0 732.2,55.0 732.3,55.0 732.3,55.0 732.4,55.0 732.5,55.0 732.5,55.0 732.6,55.0 732.7,55.0 732.7,55.0 732.8,55.0 732.9,55.0 733.0,55.0 733.0,55.0 733.1,55.0 733.2,55.0 733.2,55.0 733.3,55.0 733.4,55.0 733.4,55.0 733.5,55.0 733.6,55.0 733.7,55.0 733.7,55.0 733.8,55.0 733.9,55.0 733.9,55.0 734.0,55.0 734.1,55.0 734.1,55.0 734.2,55.0 734.3,55.0 734.4,55.0 734.4,55.0 734.5,55.0 734.6,55.0 734.6,55.0 734.7,55.0 734.8,55.0 734.8,55.0 734.9,55.0 735.0,55.0 735.0,55.0 735.1,55.0 735.2,55.0 735.3,55.0 735.3,55.0 735.4,55.0 735.5,55.0 735.5,55.0 735.6,55.0 735.7,55.0 735.7,55.0 735.8,55.0 735.9,55.0 736.0,55.0 736.0,55.0 736.1,55.0 736.2,55.0 736.2,55.0 736.3,55.0 736.4,55.0 736.4,55.0 736.5,55.0 736.6,55.0 736.6,55.0 736.7,55.0 736.8,55.0 736.9,55.0 736.9,55.0 737.0,55.0 737.1,55.0 737.1,55.0 737.2,55.0 737.3,55.0 737.3,55.0 737.4,55.0 737.5,55.0 737.6,55.0 737.6,55.0 737.7,55.0 737.8,55.0 737.8,55.0 737.9,55.0 738.0,55.0 738.0,55.0 738.1,55.0 738.2,55.0 738.2,55.0 738.3,55.0 738.4,55.0 738.5,55.0 738.5,55.0 738.6,55.0 738.7,55.0 738.7,55.0 738.8,55.0 738.9,55.0 738.9,55.0 739.0,55.0 739.1,55.0 739.2,55.0 739.2,55.0 739.3,55.0 739.4,55.0 739.4,55.0 739.5,55.0 739.6,55.0 739.6,55.0 739.7,55.0 739.8,55.0 739.9,55.0 739.9,55.0 740.0,55.0 740.1,55.0 740.1,55.0 740.2,55.0 740.3,55.0 740.3,55.0 740.4,55.0 740.5,55.0 740.5,55.0 740.6,55.0 740.7,55.0 740.8,55.0 740.8,55.0 740.9,55.0 741.0,55.0 741.0,55.0 741.1,55.0 741.2,55.0 741.2,55.0 741.3,55.0 741.4,55.0 741.5,55.0 741.5,55.0 741.6,55.0 741.7,55.0 741.7,55.0 741.8,55.0 741.9,55.0 741.9,55.0 742.0,55.0 742.1,55.0 742.1,55.0 742.2,55.0 742.3,55.0 742.4,55.0 742.4,55.0 742.5,55.0 742.6,55.0 742.6,55.0 742.7,55.0 742.8,55.0 742.8,55.0 742.9,55.0 743.0,55.0 743.1,55.0 743.1,55.0 743.2,55.0 743.3,55.0 743.3,55.0 743.4,55.0 743.5,55.0 743.5,55.0 743.6,55.0 743.7,55.0 743.7,55.0 743.8,55.0 743.9,55.0 744.0,55.0 744.0,55.0 744.1,55.0 744.2,55.0 744.2,55.0 744.3,55.0 744.4,55.0 744.4,55.0 744.5,55.0 744.6,55.0 744.7,55.0 744.7,55.0 744.8,55.0 744.9,55.0 744.9,55.0 745.0,55.0 745.1,55.0 745.1,55.0 745.2,55.0 745.3,55.0 745.4,55.0 745.4,55.0 745.5,55.0 745.6,55.0 745.6,55.0 745.7,55.0 745.8,55.0 745.8,55.0 745.9,55.0 746.0,55.0 746.0,55.0 746.1,55.0 746.2,55.0 746.3,55.0 746.3,55.0 746.4,55.0 746.5,55.0 746.5,55.0 746.6,55.0 746.7,55.0 746.7,55.0 746.8,55.0 746.9,55.0 747.0,55.0 747.0,55.0 747.1,55.0 747.2,55.0 747.2,55.0 747.3,55.0 747.4,55.0 747.4,55.0 747.5,55.0 747.6,55.0 747.6,55.0 747.7,55.0 747.8,55.0 747.9,55.0 747.9,55.0 748.0,55.0 748.1,55.0 748.1,55.0 748.2,55.0 748.3,55.0 748.3,55.0 748.4,55.0 748.5,55.0 748.6,55.0 748.6,55.0 748.7,55.0 748.8,55.0 748.8,55.0 748.9,55.0 749.0,55.0 749.0,55.0 749.1,55.0 749.2,55.0 749.2,55.0 749.3,55.0 749.4,55.0 749.5,55.0 749.5,55.0 749.6,55.0 749.7,55.0 749.7,55.0 749.8,55.0 749.9,55.0 749.9,55.0 750.0,55.0 750.1,55.0 750.2,55.0 750.2,55.0 750.3,55.0 750.4,55.0 750.4,55.0 750.5,55.0 750.6,55.0 750.6,55.0 750.7,55.0 750.8,55.0 750.9,55.0 750.9,55.0 751.0,55.0 751.1,55.0 751.1,55.0 751.2,55.0 751.3,55.0 751.3,55.0 751.4,55.0 751.5,55.0 751.5,55.0 751.6,55.0 751.7,55.0 751.8,55.0 751.8,55.0 751.9,55.0 752.0,55.0 752.0,55.0 752.1,55.0 752.2,55.0 752.2,55.0 752.3,55.0 752.4,55.0 752.5,55.0 752.5,55.0 752.6,55.0 752.7,55.0 752.7,55.0 752.8,55.0 752.9,55.0 752.9,55.0 753.0,55.0 753.1,55.0 753.1,55.0 753.2,55.0 753.3,55.0 753.4,55.0 753.4,55.0 753.5,55.0 753.6,55.0 753.6,55.0 753.7,55.0 753.8,55.0 753.8,55.0 753.9,55.0 754.0,55.0 754.1,55.0 754.1,55.0 754.2,55.0 754.3,55.0 754.3,55.0 754.4,55.0 754.5,55.0 754.5,55.0 754.6,55.0 754.7,55.0 754.7,55.0 754.8,55.0 754.9,55.0 755.0,55.0 755.0,55.0 755.1,55.0 755.2,55.0 755.2,55.0 755.3,55.0 755.4,55.0 755.4,55.0 755.5,55.0 755.6,55.0 755.7,55.0 755.7,55.0 755.8,55.0 755.9,55.0 755.9,55.0 756.0,55.0 756.1,55.0 756.1,55.0 756.2,55.0 756.3,55.0 756.4,55.0 756.4,55.0 756.5,55.0 756.6,55.0 756.6,55.0 756.7,55.0 756.8,55.0 756.8,55.0 756.9,55.0 757.0,55.0 757.0,55.0 757.1,55.0 757.2,55.0 757.3,55.0 757.3,55.0 757.4,55.0 757.5,55.0 757.5,55.0 757.6,55.0 757.7,55.0 757.7,55.0 757.8,55.0 757.9,55.0 758.0,55.0 758.0,55.0 758.1,55.0 758.2,55.0 758.2,55.0 758.3,55.0 758.4,55.0 758.4,55.0 758.5,55.0 758.6,55.0 758.6,55.0 758.7,55.0 758.8,55.0 758.9,55.0 758.9,55.0 759.0,55.0 759.1,55.0 759.1,55.0 759.2,55.0 759.3,55.0 759.3,55.0 759.4,55.0 759.5,55.0 759.6,55.0 759.6,55.0 759.7,55.0 759.8,55.0 759.8,55.0 759.9,55.0 760.0,55.0 760.0,55.0 760.1,55.0 760.2,55.0 760.3,55.0 760.3,55.0 760.4,55.0 760.5,55.0 760.5,55.0 760.6,55.0 760.7,55.0 760.7,55.0 760.8,55.0 760.9,55.0 760.9,55.0 761.0,55.0 761.1,55.0 761.2,55.0 761.2,55.0 761.3,55.0 761.4,55.0 761.4,55.0 761.5,55.0 761.6,55.0 761.6,55.0 761.7,55.0 761.8,55.0 761.9,55.0 761.9,55.0 762.0,55.0 762.1,55.0 762.1,55.0 762.2,55.0 762.3,55.0 762.3,55.0 762.4,55.0 762.5,55.0 762.5,55.0 762.6,55.0 762.7,55.0 762.8,55.0 762.8,55.0 762.9,55.0 763.0,55.0 763.0,55.0 763.1,55.0 763.2,55.0 763.2,55.0 763.3,55.0 763.4,55.0 763.5,55.0 763.5,55.0 763.6,55.0 763.7,55.0 763.7,55.0 763.8,55.0 763.9,55.0 763.9,55.0 764.0,55.0 764.1,55.0 764.1,55.0 764.2,55.0 764.3,55.0 764.4,55.0 764.4,55.0 764.5,55.0 764.6,55.0 764.6,55.0 764.7,55.0 764.8,55.0 764.8,55.0 764.9,55.0 765.0,55.0 765.1,55.0 765.1,55.0 765.2,55.0 765.3,55.0 765.3,55.0 765.4,55.0 765.5,55.0 765.5,55.0 765.6,55.0 765.7,55.0 765.8,55.0 765.8,55.0 765.9,55.0 766.0,55.0 766.0,55.0 766.1,55.0 766.2,55.0 766.2,55.0 766.3,55.0 766.4,55.0 766.4,55.0 766.5,55.0 766.6,55.0 766.7,55.0 766.7,55.0 766.8,55.0 766.9,55.0 766.9,55.0 767.0,55.0 767.1,55.0 767.1,55.0 767.2,55.0 767.3,55.0 767.4,55.0 767.4,55.0 767.5,55.0 767.6,55.0 767.6,55.0 767.7,55.0 767.8,55.0 767.8,55.0 767.9,55.0 768.0,55.0 768.0,55.0 768.1,55.0 768.2,55.0 768.3,55.0 768.3,55.0 768.4,55.0 768.5,55.0 768.5,55.0 768.6,55.0 768.7,55.0 768.7,55.0 768.8,55.0 768.9,55.0 769.0,55.0 769.0,55.0 769.1,55.0 769.2,55.0 769.2,55.0 769.3,55.0 769.4,55.0 769.4,55.0 769.5,55.0 769.6,55.0 769.6,55.0 769.7,55.0 769.8,55.0 769.9,55.0 769.9,55.0 770.0,55.0 770.1,55.0 770.1,55.0 770.2,55.0 770.3,55.0 770.3,55.0 770.4,55.0 770.5,55.0 770.6,55.0 770.6,55.0 770.7,55.0 770.8,55.0 770.8,55.0 770.9,55.0 771.0,55.0 771.0,55.0 771.1,55.0 771.2,55.0 771.3,55.0 771.3,55.0 771.4,55.0 771.5,55.0 771.5,55.0 771.6,55.0 771.7,55.0 771.7,55.0 771.8,55.0 771.9,55.0 771.9,55.0 772.0,55.0 772.1,55.0 772.2,55.0 772.2,55.0 772.3,55.0 772.4,55.0 772.4,55.0 772.5,55.0 772.6,55.0 772.6,55.0 772.7,55.0 772.8,55.0 772.9,55.0 772.9,55.0 773.0,55.0 773.1,55.0 773.1,55.0 773.2,55.0 773.3,55.0 773.3,55.0 773.4,55.0 773.5,55.0 773.5,55.0 773.6,55.0 773.7,55.0 773.8,55.0 773.8,55.0 773.9,55.0 774.0,55.0 774.0,55.0 774.1,55.0 774.2,55.0 774.2,55.0 774.3,55.0 774.4,55.0 774.5,55.0 774.5,55.0 774.6,55.0 774.7,55.0 774.7,55.0 774.8,55.0 774.9,55.0 774.9,55.0 775.0,55.0 775.1,55.0 775.1,55.0 775.2,55.0 775.3,55.0 775.4,55.0 775.4,55.0 775.5,55.0 775.6,55.0 775.6,55.0 775.7,55.0 775.8,55.0 775.8,55.0 775.9,55.0 776.0,55.0 776.1,55.0 776.1,55.0 776.2,55.0 776.3,55.0 776.3,55.0 776.4,55.0 776.5,55.0 776.5,55.0 776.6,55.0 776.7,55.0 776.8,55.0 776.8,55.0 776.9,55.0 777.0,55.0 777.0,55.0 777.1,55.0 777.2,55.0 777.2,55.0 777.3,55.0 777.4,55.0 777.4,55.0 777.5,55.0 777.6,55.0 777.7,55.0 777.7,55.0 777.8,55.0 777.9,55.0 777.9,55.0 778.0,55.0 778.1,55.0 778.1,55.0 778.2,55.0 778.3,55.0 778.4,55.0 778.4,55.0 778.5,55.0 778.6,55.0 778.6,55.0 778.7,55.0 778.8,55.0 778.8,55.0 778.9,55.0 779.0,55.0 779.0,55.0 779.1,55.0 779.2,55.0 779.3,55.0 779.3,55.0 779.4,55.0 779.5,55.0 779.5,55.0 779.6,55.0 779.7,55.0 779.7,55.0 779.8,55.0 779.9,55.0 780.0,55.0 780.0,55.0 780.1,55.0 780.2,55.0 780.2,55.0 780.3,55.0 780.4,55.0 780.4,55.0 780.5,55.0 780.6,55.0 780.6,55.0 780.7,55.0 780.8,55.0 780.9,55.0 780.9,55.0 781.0,55.0 781.1,55.0 781.1,55.0 781.2,55.0 781.3,55.0 781.3,55.0 781.4,55.0 781.5,55.0 781.6,55.0 781.6,55.0 781.7,55.0 781.8,55.0 781.8,55.0 781.9,55.0 782.0,55.0 782.0,55.0 782.1,55.0 782.2,55.0 782.3,55.0 782.3,55.0 782.4,55.0 782.5,55.0 782.5,55.0 782.6,55.0 782.7,55.0 782.7,55.0 782.8,55.0 782.9,55.0 782.9,55.0 783.0,55.0 783.1,55.0 783.2,55.0 783.2,55.0 783.3,55.0 783.4,55.0 783.4,55.0 783.5,55.0 783.6,55.0 783.6,55.0 783.7,55.0 783.8,55.0 783.9,55.0 783.9,55.0 784.0,55.0 784.1,55.0 784.1,55.0 784.2,55.0 784.3,55.0 784.3,55.0 784.4,55.0 784.5,55.0 784.5,55.0 784.6,55.0 784.7,55.0 784.8,55.0 784.8,55.0 784.9,55.0 785.0,55.0 785.0,55.0 785.1,55.0 785.2,55.0 785.2,55.0 785.3,55.0 785.4,55.0 785.5,55.0 785.5,55.0 785.6,55.0 785.7,55.0 785.7,55.0 785.8,55.0 785.9,55.0 785.9,55.0 786.0,55.0 786.1,55.0 786.2,55.0 786.2,55.0 786.3,55.0 786.4,55.0 786.4,55.0 786.5,55.0 786.6,55.0 786.6,55.0 786.7,55.0 786.8,55.0 786.8,55.0 786.9,55.0 787.0,55.0 787.1,55.0 787.1,55.0 787.2,55.0 787.3,55.0 787.3,55.0 787.4,55.0 787.5,55.0 787.5,55.0 787.6,55.0 787.7,55.0 787.8,55.0 787.8,55.0 787.9,55.0 788.0,55.0 788.0,55.0 788.1,55.0 788.2,55.0 788.2,55.0 788.3,55.0 788.4,55.0 788.4,55.0 788.5,55.0 788.6,55.0 788.7,55.0 788.7,55.0 788.8,55.0 788.9,55.0 788.9,55.0 789.0,55.0 789.1,55.0 789.1,55.0 789.2,55.0 789.3,55.0 789.4,55.0 789.4,55.0 789.5,55.0 789.6,55.0 789.6,55.0 789.7,55.0 789.8,55.0 789.8,55.0 789.9,55.0 790.0,55.0 790.0,55.0 790.1,55.0 790.2,55.0 790.3,55.0 790.3,55.0 790.4,55.0 790.5,55.0 790.5,55.0 790.6,55.0 790.7,55.0 790.7,55.0 790.8,55.0 790.9,55.0 791.0,55.0 791.0,55.0 791.1,55.0 791.2,55.0 791.2,55.0 791.3,55.0 791.4,55.0 791.4,55.0 791.5,55.0 791.6,55.0 791.7,55.0 791.7,55.0 791.8,55.0 791.9,55.0 791.9,55.0 792.0,55.0 792.1,55.0 792.1,55.0 792.2,55.0 792.3,55.0 792.3,55.0 792.4,55.0 792.5,55.0 792.6,55.0 792.6,55.0 792.7,55.0 792.8,55.0 792.8,55.0 792.9,55.0 793.0,55.0 793.0,55.0 793.1,55.0 793.2,55.0 793.3,55.0 793.3,55.0 793.4,55.0 793.5,55.0 793.5,55.0 793.6,55.0 793.7,55.0 793.7,55.0 793.8,55.0 793.9,55.0 793.9,55.0 794.0,55.0 794.1,55.0 794.2,55.0 794.2,55.0 794.3,55.0 794.4,55.0 794.4,55.0 794.5,55.0 794.6,55.0 794.6,55.0 794.7,55.0 794.8,55.0 794.9,55.0 794.9,55.0 795.0,55.0 795.1,55.0 795.1,55.0 795.2,55.0 795.3,55.0 795.3,55.0 795.4,55.0 795.5,55.0 795.5,55.0 795.6,55.0 795.7,55.0 795.8,55.0 795.8,55.0 795.9,55.0 796.0,55.0 796.0,55.0 796.1,55.0 796.2,55.0 796.2,55.0 796.3,55.0 796.4,55.0 796.5,55.0 796.5,55.0 796.6,55.0 796.7,55.0 796.7,55.0 796.8,55.0 796.9,55.0 796.9,55.0 797.0,55.0 797.1,55.0 797.2,55.0 797.2,55.0 797.3,55.0 797.4,55.0 797.4,55.0 797.5,55.0 797.6,55.0 797.6,55.0 797.7,55.0 797.8,55.0 797.8,55.0 797.9,55.0 798.0,55.0 798.1,55.0 798.1,55.0 798.2,55.0 798.3,55.0 798.3,55.0 798.4,55.0 798.5,55.0 798.5,55.0 798.6,55.0 798.7,55.0 798.8,55.0 798.8,55.0 798.9,55.0 799.0,55.0 799.0,55.0 799.1,55.0 799.2,55.0 799.2,55.0 799.3,55.0 799.4,55.0 799.4,55.0 799.5,55.0 799.6,55.0 799.7,55.0 799.7,55.0 799.8,55.0 799.9,55.0 799.9,55.0 800.0,55.0 800.1,55.0 800.1,55.0 800.2,55.0 800.3,55.0 800.4,55.0 800.4,55.0 800.5,55.0 800.6,55.0 800.6,55.0 800.7,55.0 800.8,55.0 800.8,55.0 800.9,55.0 801.0,55.0 801.0,55.0 801.1,55.0 801.2,55.0 801.3,55.0 801.3,55.0 801.4,55.0 801.5,55.0 801.5,55.0 801.6,55.0 801.7,55.0 801.7,55.0 801.8,55.0 801.9,55.0 802.0,55.0 802.0,55.0 802.1,55.0 802.2,55.0 802.2,55.0 802.3,55.0 802.4,55.0 802.4,55.7 802.5,55.7 802.6,55.7 802.7,55.7 802.7,55.7 802.8,55.7 802.9,55.7 802.9,55.7 803.0,55.7 803.1,55.7 803.1,55.7 803.2,55.7 803.3,55.7 803.3,55.7 803.4,55.7 803.5,55.7 803.6,55.7 803.6,55.7 803.7,55.7 803.8,55.7 803.8,55.7 803.9,55.7 804.0,55.7 804.0,55.7 804.1,55.7 804.2,56.4 804.3,56.4 804.3,56.4 804.4,56.4 804.5,56.4 804.5,56.4 804.6,56.4 804.7,56.4 804.7,56.4 804.8,56.4 804.9,56.4 804.9,56.4 805.0,56.4 805.1,56.4 805.2,56.4 805.2,56.4 805.3,56.4 805.4,56.4 805.4,56.4 805.5,56.4 805.6,56.4 805.6,56.4 805.7,56.4 805.8,56.4 805.9,56.4 805.9,56.4 806.0,57.1 806.1,57.1 806.1,57.1 806.2,57.1 806.3,57.1 806.3,57.8 806.4,57.8 806.5,57.8 806.5,57.8 806.6,57.8 806.7,57.8 806.8,57.8 806.8,57.8 806.9,57.8 807.0,57.8 807.0,57.8 807.1,57.8 807.2,57.8 807.2,57.8 807.3,57.8 807.4,57.8 807.5,58.5 807.5,58.5 807.6,58.5 807.7,58.5 807.7,58.5 807.8,58.5 807.9,59.2 807.9,59.2 808.0,59.2 808.1,59.2 808.2,59.2 808.2,59.2 808.3,59.2 808.4,59.2 808.4,59.2 808.5,59.2 808.6,59.2 808.6,59.2 808.7,59.2 808.8,59.2 808.8,59.2 808.9,59.2 809.0,59.2 809.1,59.2 809.1,59.2 809.2,59.2 809.3,59.2 809.3,59.2 809.4,59.2 809.5,59.2 809.5,59.2 809.6,59.2 809.7,59.2 809.8,59.2 809.8,59.2 809.9,59.9 810.0,59.9 810.0,59.9 810.1,59.9 810.2,59.9 810.2,59.9 810.3,59.9 810.4,59.9 810.4,59.9 810.5,59.9 810.6,59.9 810.7,59.9 810.7,59.9 810.8,60.5 810.9,60.5 810.9,60.5 811.0,60.5 811.1,60.5 811.1,60.5 811.2,61.2 811.3,61.2 811.4,61.2 811.4,61.2 811.5,61.2 811.6,61.2 811.6,61.2 811.7,61.2 811.8,61.2 811.8,61.2 811.9,61.2 812.0,61.2 812.1,61.9 812.1,61.9 812.2,61.9 812.3,61.9 812.3,61.9 812.4,62.6 812.5,62.6 812.5,62.6 812.6,62.6 812.7,62.6 812.7,62.6 812.8,62.6 812.9,62.6 813.0,62.6 813.0,63.3 813.1,63.3 813.2,63.3 813.2,63.3 813.3,63.3 813.4,63.3 813.4,63.3 813.5,63.3 813.6,63.3 813.7,63.3 813.7,63.3 813.8,63.3 813.9,63.3 813.9,63.3 814.0,63.3 814.1,63.3 814.1,63.3 814.2,63.3 814.3,63.3 814.3,63.3 814.4,63.3 814.5,63.3 814.6,63.3 814.6,63.3 814.7,63.3 814.8,63.3 814.8,63.3 814.9,63.3 815.0,63.3 815.0,63.3 815.1,63.3 815.2,63.3 815.3,63.3 815.3,63.3 815.4,63.3 815.5,63.3 815.5,63.3 815.6,63.3 815.7,64.0 815.7,64.0 815.8,64.0 815.9,64.7 815.9,64.7 816.0,64.7 816.1,64.7 816.2,64.7 816.2,64.7 816.3,64.7 816.4,64.7 816.4,64.7 816.5,64.7 816.6,64.7 816.6,64.7 816.7,64.7 816.8,64.7 816.9,64.7 816.9,64.7 817.0,64.7 817.1,64.7 817.1,64.7 817.2,64.7 817.3,64.7 817.3,64.7 817.4,64.7 817.5,64.7 817.6,64.7 817.6,64.7 817.7,64.7 817.8,64.7 817.8,64.7 817.9,64.7 818.0,64.7 818.0,64.7 818.1,64.7 818.2,64.7 818.2,64.7 818.3,64.7 818.4,64.7 818.5,64.7 818.5,64.7 818.6,64.7 818.7,64.7 818.7,64.7 818.8,64.7 818.9,64.7 818.9,64.7 819.0,64.7 819.1,64.7 819.2,64.7 819.2,64.7 819.3,64.7 819.4,64.7 819.4,64.7 819.5,64.7 819.6,64.7 819.6,64.7 819.7,64.7 819.8,64.7 819.8,64.7 819.9,64.7 820.0,64.7 820.1,64.7 820.1,64.7 820.2,64.7 820.3,64.7 820.3,64.7 820.4,64.7 820.5,64.7 820.5,64.7 820.6,64.7 820.7,64.7 820.8,64.7 820.8,64.7 820.9,64.7 821.0,64.7 821.0,64.7 821.1,64.7 821.2,64.7 821.2,64.7 821.3,64.7 821.4,64.7 821.4,64.7 821.5,64.7 821.6,64.7 821.7,64.7 821.7,64.7 821.8,64.7 821.9,64.7 821.9,64.7 822.0,64.7 822.1,64.7 822.1,64.7 822.2,64.7 822.3,64.7 822.4,64.7 822.4,64.7 822.5,64.7 822.6,64.7 822.6,64.7 822.7,64.7 822.8,64.7 822.8,64.7 822.9,64.7 823.0,64.7 823.1,64.7 823.1,64.7 823.2,64.7 823.3,64.7 823.3,64.7 823.4,64.7 823.5,64.7 823.5,64.7 823.6,64.7 823.7,64.7 823.7,64.7 823.8,64.7 823.9,64.7 824.0,64.7 824.0,64.7 824.1,64.7 824.2,64.7 824.2,64.7 824.3,64.7 824.4,64.7 824.4,64.7 824.5,64.7 824.6,64.7 824.7,64.7 824.7,64.7 824.8,64.7 824.9,64.7 824.9,64.7 825.0,64.7 825.1,64.7 825.1,64.7 825.2,64.7 825.3,64.7 825.3,64.7 825.4,64.7 825.5,64.7 825.6,64.7 825.6,64.7 825.7,64.7 825.8,64.7 825.8,64.7 825.9,64.7 826.0,64.7 826.0,64.7 826.1,64.7 826.2,64.7 826.3,64.7 826.3,64.7 826.4,64.7 826.5,64.7 826.5,64.7 826.6,64.7 826.7,64.7 826.7,64.7 826.8,64.7 826.9,64.7 826.9,64.7 827.0,64.7 827.1,64.7 827.2,64.7 827.2,64.7 827.3,64.7 827.4,64.7 827.4,64.7 827.5,64.7 827.6,64.7 827.6,64.7 827.7,64.7 827.8,64.7 827.9,64.7 827.9,64.7 828.0,64.7 828.1,64.7 828.1,64.7 828.2,64.7 828.3,64.7 828.3,64.7 828.4,64.7 828.5,64.7 828.6,64.7 828.6,64.7 828.7,64.7 828.8,64.7 828.8,64.7 828.9,64.7 829.0,64.7 829.0,64.7 829.1,64.7 829.2,64.7 829.2,64.7 829.3,64.7 829.4,64.7 829.5,64.7 829.5,64.7 829.6,64.7 829.7,64.7 829.7,64.7 829.8,64.7 829.9,64.7 829.9,64.7 830.0,64.7 830.1,64.7 830.2,64.7 830.2,64.7 830.3,64.7 830.4,64.7 830.4,64.7 830.5,64.7 830.6,64.7 830.6,64.7 830.7,64.7 830.8,64.7 830.8,64.7 830.9,64.7 831.0,64.7 831.1,64.7 831.1,64.7 831.2,64.7 831.3,64.7 831.3,64.7 831.4,64.7 831.5,64.7 831.5,64.7 831.6,64.7 831.7,64.7 831.8,64.7 831.8,64.7 831.9,64.7 832.0,64.7 832.0,64.7 832.1,64.7 832.2,64.7 832.2,64.7 832.3,64.7 832.4,64.7 832.4,64.7 832.5,64.7 832.6,64.7 832.7,64.7 832.7,64.7 832.8,64.7 832.9,64.7 832.9,64.7 833.0,64.7 833.1,64.7 833.1,64.7 833.2,64.7 833.3,64.7 833.4,64.7 833.4,64.7 833.5,64.7 833.6,64.7 833.6,64.7 833.7,64.7 833.8,64.7 833.8,64.7 833.9,64.7 834.0,64.7 834.1,64.7 834.1,64.7 834.2,64.7 834.3,64.7 834.3,64.7 834.4,64.7 834.5,64.7 834.5,64.7 834.6,64.7 834.7,64.7 834.7,64.7 834.8,64.7 834.9,64.7 835.0,64.7 835.0,64.7 835.1,64.7 835.2,64.7 835.2,64.7 835.3,64.7 835.4,64.7 835.4,64.7 835.5,64.7 835.6,64.7 835.7,64.7 835.7,64.7 835.8,64.7 835.9,64.7 835.9,64.7 836.0,64.7 836.1,64.7 836.1,64.7 836.2,64.7 836.3,64.7 836.3,64.7 836.4,64.7 836.5,64.7 836.6,64.7 836.6,64.7 836.7,64.7 836.8,64.7 836.8,64.7 836.9,64.7 837.0,64.7 837.0,64.7 837.1,64.7 837.2,64.7 837.3,64.7 837.3,64.7 837.4,64.7 837.5,64.7 837.5,64.7 837.6,64.7 837.7,64.7 837.7,64.7 837.8,64.7 837.9,64.7 837.9,64.7 838.0,64.7 838.1,64.7 838.2,64.7 838.2,64.7 838.3,64.7 838.4,64.7 838.4,64.7 838.5,64.7 838.6,64.7 838.6,64.7 838.7,64.7 838.8,64.7 838.9,64.7 838.9,64.7 839.0,64.7 839.1,64.7 839.1,64.7 839.2,64.7 839.3,64.7 839.3,64.7 839.4,64.7 839.5,64.7 839.6,64.7 839.6,64.7 839.7,64.7 839.8,64.7 839.8,64.7 839.9,64.7 840.0,64.7 840.0,64.7 840.1,64.7 840.2,64.7 840.2,64.7 840.3,64.7 840.4,64.7 840.5,64.7 840.5,64.7 840.6,64.7 840.7,64.7 840.7,64.7 840.8,64.7 840.9,64.7 840.9,64.7 841.0,64.7 841.1,64.7 841.2,64.7 841.2,64.7 841.3,64.7 841.4,64.7 841.4,64.7 841.5,64.7 841.6,64.7 841.6,64.7 841.7,64.7 841.8,64.7 841.8,64.7 841.9,64.7 842.0,64.7 842.1,64.7 842.1,64.7 842.2,64.7 842.3,64.7 842.3,64.7 842.4,64.7 842.5,64.7 842.5,64.7 842.6,64.7 842.7,64.7 842.8,64.7 842.8,64.7 842.9,64.7 843.0,64.7 843.0,64.7 843.1,64.7 843.2,64.7 843.2,64.7 843.3,64.7 843.4,64.7 843.5,64.7 843.5,64.7 843.6,64.7 843.7,64.7 843.7,64.7 843.8,64.7 843.9,64.7 843.9,64.7 844.0,64.7 844.1,64.7 844.1,64.7 844.2,64.7 844.3,64.7 844.4,64.7 844.4,64.7 844.5,64.7 844.6,64.7 844.6,64.7 844.7,64.7 844.8,64.7 844.8,64.7 844.9,64.7 845.0,64.7 845.1,64.7 845.1,64.7 845.2,64.7 845.3,64.7 845.3,64.7 845.4,64.7 845.5,64.7 845.5,64.7 845.6,64.7 845.7,64.7 845.7,64.7 845.8,64.7 845.9,64.7 846.0,64.7 846.0,64.7 846.1,64.7 846.2,64.7 846.2,64.7 846.3,64.7 846.4,64.7 846.4,64.7 846.5,64.7 846.6,64.7 846.7,64.7 846.7,64.7 846.8,64.7 846.9,64.7 846.9,64.7 847.0,64.7 847.1,64.7 847.1,64.7 847.2,64.7 847.3,64.7 847.3,64.7 847.4,64.7 847.5,64.7 847.6,64.7 847.6,64.7 847.7,64.7 847.8,64.7 847.8,64.7 847.9,64.7 848.0,64.7 848.0,64.7 848.1,64.7 848.2,64.7 848.3,64.7 848.3,64.7 848.4,64.7 848.5,64.7 848.5,64.7 848.6,64.7 848.7,64.7 848.7,64.7 848.8,64.7 848.9,64.7 849.0,64.7 849.0,64.7 849.1,64.7 849.2,64.7 849.2,64.7 849.3,64.7 849.4,64.7 849.4,64.7 849.5,64.7 849.6,64.7 849.6,64.7 849.7,64.7 849.8,64.7 849.9,64.7 849.9,64.7 850.0,64.7 850.1,64.7 850.1,64.7 850.2,64.7 850.3,64.7 850.3,64.7 850.4,64.7 850.5,64.7 850.6,64.7 850.6,64.7 850.7,64.7 850.8,64.7 850.8,64.7 850.9,64.7 851.0,64.7 851.0,64.7 851.1,64.7 851.2,64.7 851.2,64.7 851.3,64.7 851.4,64.7 851.5,64.7 851.5,64.7 851.6,64.7 851.7,64.7 851.7,64.7 851.8,64.7 851.9,64.7 851.9,64.7 852.0,64.7 852.1,64.7 852.2,64.7 852.2,64.7 852.3,64.7 852.4,64.7 852.4,64.7 852.5,64.7 852.6,64.7 852.6,64.7 852.7,64.7 852.8,64.7 852.8,64.7 852.9,64.7 853.0,64.7 853.1,64.7 853.1,64.7 853.2,64.7 853.3,64.7 853.3,64.7 853.4,64.7 853.5,64.7 853.5,64.7 853.6,64.7 853.7,64.7 853.8,64.7 853.8,64.7 853.9,64.7 854.0,64.7 854.0,64.7 854.1,64.7 854.2,64.7 854.2,64.7 854.3,64.7 854.4,64.7 854.5,64.7 854.5,64.7 854.6,64.7 854.7,64.7 854.7,64.7 854.8,64.7 854.9,64.7 854.9,64.7 855.0,64.7 855.1,64.7 855.1,64.7 855.2,64.7 855.3,64.7 855.4,64.7 855.4,64.7 855.5,64.7 855.6,64.7 855.6,64.7 855.7,64.7 855.8,64.7 855.8,64.7 855.9,64.7 856.0,64.7 856.1,64.7 856.1,64.7 856.2,64.7 856.3,64.7 856.3,64.7 856.4,64.7 856.5,64.7 856.5,64.7 856.6,64.7 856.7,64.7 856.7,64.7 856.8,64.7 856.9,64.7 857.0,64.7 857.0,64.7 857.1,64.7 857.2,64.7 857.2,64.7 857.3,64.7 857.4,64.7 857.4,64.7 857.5,64.7 857.6,64.7 857.7,64.7 857.7,64.7 857.8,64.7 857.9,64.7 857.9,64.7 858.0,64.7 858.1,64.7 858.1,64.7 858.2,64.7 858.3,64.7 858.3,64.7 858.4,64.7 858.5,64.7 858.6,64.7 858.6,64.7 858.7,64.7 858.8,64.7 858.8,64.7 858.9,64.7 859.0,64.7 859.0,64.7 859.1,64.7 859.2,64.7 859.3,64.7 859.3,64.7 859.4,64.7 859.5,64.7 859.5,64.7 859.6,64.7 859.7,64.7 859.7,64.7 859.8,64.7 859.9,64.7 860.0,64.7 860.0,64.7 860.1,64.7 860.2,64.7 860.2,64.7 860.3,64.7 860.4,64.7 860.4,64.7 860.5,64.7 860.6,64.7 860.6,64.7 860.7,64.7 860.8,64.7 860.9,64.7 860.9,64.7 861.0,64.7 861.1,64.7 861.1,64.7 861.2,64.7 861.3,64.7 861.3,64.7 861.4,64.7 861.5,64.7 861.6,64.7 861.6,64.7 861.7,64.7 861.8,64.7 861.8,64.7 861.9,64.7 862.0,64.7 862.0,64.7 862.1,64.7 862.2,64.7 862.2,64.7 862.3,64.7 862.4,64.7 862.5,64.7 862.5,64.7 862.6,64.7 862.7,64.7 862.7,64.7 862.8,64.7 862.9,64.7 862.9,64.7 863.0,64.7 863.1,64.7 863.2,64.7 863.2,64.7 863.3,64.7 863.4,64.7 863.4,64.7 863.5,64.7 863.6,64.7 863.6,64.7 863.7,64.7 863.8,64.7 863.8,64.7 863.9,64.7 864.0,64.7 864.1,64.7 864.1,64.7 864.2,64.7 864.3,64.7 864.3,64.7 864.4,64.7 864.5,64.7 864.5,64.7 864.6,64.7 864.7,64.7 864.8,64.7 864.8,64.7 864.9,64.7 865.0,64.7 865.0,64.7 865.1,64.7 865.2,64.7 865.2,64.7 865.3,64.7 865.4,64.7 865.5,64.7 865.5,64.7 865.6,64.7 865.7,64.7 865.7,64.7 865.8,64.7 865.9,64.7 865.9,64.7 866.0,64.7 866.1,64.7 866.1,64.7 866.2,64.7 866.3,64.7 866.4,64.7 866.4,64.7 866.5,64.7 866.6,64.7 866.6,64.7 866.7,64.7 866.8,64.7 866.8,64.7 866.9,64.7 867.0,64.7 867.1,64.7 867.1,64.7 867.2,64.7 867.3,64.7 867.3,64.7 867.4,64.7 867.5,64.7 867.5,64.7 867.6,64.7 867.7,64.7 867.7,64.7 867.8,64.7 867.9,64.7 868.0,64.7 868.0,64.7 868.1,64.7 868.2,64.7 868.2,64.7 868.3,64.7 868.4,64.7 868.4,64.7 868.5,64.7 868.6,64.7 868.7,64.7 868.7,64.7 868.8,64.7 868.9,64.7 868.9,64.7 869.0,64.7 869.1,64.7 869.1,64.7 869.2,64.7 869.3,64.7 869.4,64.7 869.4,64.7 869.5,64.7 869.6,64.7 869.6,64.7 869.7,64.7 869.8,64.7 869.8,64.7 869.9,64.7 870.0,64.7 870.0,64.7 870.1,64.7 870.2,64.7 870.3,64.7 870.3,64.7 870.4,64.7 870.5,64.7 870.5,64.7 870.6,64.7 870.7,64.7 870.7,64.7 870.8,64.7 870.9,64.7 871.0,64.7 871.0,64.7 871.1,64.7 871.2,64.7 871.2,64.7 871.3,64.7 871.4,64.7 871.4,64.7 871.5,64.7 871.6,64.7 871.6,64.7 871.7,64.7 871.8,64.7 871.9,64.7 871.9,64.7 872.0,64.7 872.1,64.7 872.1,64.7 872.2,64.7 872.3,64.7 872.3,64.7 872.4,64.7 872.5,64.7 872.6,64.7 872.6,64.7 872.7,64.7 872.8,64.7 872.8,64.7 872.9,64.7 873.0,64.7 873.0,64.7 873.1,64.7 873.2,64.7 873.2,64.7 873.3,64.7 873.4,64.7 873.5,64.7 873.5,64.7 873.6,64.7 873.7,64.7 873.7,64.7 873.8,64.7 873.9,64.7 873.9,64.7 874.0,64.7 874.1,64.7 874.2,64.7 874.2,64.7 874.3,64.7 874.4,64.7 874.4,64.7 874.5,64.7 874.6,64.7 874.6,64.7 874.7,64.7 874.8,64.7 874.9,64.7 874.9,64.7 875.0,64.7 875.1,64.7 875.1,64.7 875.2,64.7 875.3,64.7 875.3,64.7 875.4,64.7 875.5,64.7 875.5,64.7 875.6,64.7 875.7,64.7 875.8,64.7 875.8,64.7 875.9,64.7 876.0,64.7 876.0,64.7 876.1,64.7 876.2,64.7 876.2,64.7 876.3,64.7 876.4,64.7 876.5,64.7 876.5,64.7 876.6,64.7 876.7,64.7 876.7,64.7 876.8,64.7 876.9,64.7 876.9,64.7 877.0,64.7 877.1,64.7 877.1,64.7 877.2,64.7 877.3,64.7 877.4,64.7 877.4,64.7 877.5,64.7 877.6,64.7 877.6,64.7 877.7,64.7 877.8,64.7 877.8,64.7 877.9,64.7 878.0,64.7 878.1,64.7 878.1,64.7 878.2,64.7 878.3,64.7 878.3,64.7 878.4,64.7 878.5,64.7 878.5,64.7 878.6,64.7 878.7,64.7 878.7,64.7 878.8,64.7 878.9,64.7 879.0,64.7 879.0,64.7 879.1,64.7 879.2,64.7 879.2,64.7 879.3,64.7 879.4,64.7 879.4,64.7 879.5,64.7 879.6,64.7 879.7,64.7 879.7,64.7 879.8,64.7 879.9,64.7 879.9,64.7 880.0,64.7 880.1,64.7 880.1,64.7 880.2,64.7 880.3,64.7 880.4,64.7 880.4,64.7 880.5,64.7 880.6,64.7 880.6,64.7 880.7,64.7 880.8,64.7 880.8,64.7 880.9,64.7 881.0,64.7 881.0,64.7 881.1,64.7 881.2,64.7 881.3,64.7 881.3,64.7 881.4,64.7 881.5,64.7 881.5,64.7 881.6,64.7 881.7,64.7 881.7,64.7 881.8,64.7 881.9,64.7 882.0,64.7 882.0,64.7 882.1,64.7 882.2,64.7 882.2,64.7 882.3,64.7 882.4,64.7 882.4,64.7 882.5,64.7 882.6,64.7 882.6,64.7 882.7,64.7 882.8,64.7 882.9,64.7 882.9,64.7 883.0,64.7 883.1,64.7 883.1,64.7 883.2,64.7 883.3,64.7 883.3,64.7 883.4,64.7 883.5,64.7 883.6,64.7 883.6,64.7 883.7,64.7 883.8,64.7 883.8,64.7 883.9,64.7 884.0,64.7 884.0,64.7 884.1,64.7 884.2,64.7 884.2,64.7 884.3,64.7 884.4,64.7 884.5,64.7 884.5,64.7 884.6,64.7 884.7,64.7 884.7,64.7 884.8,64.7 884.9,64.7 884.9,64.7 885.0,64.7 885.1,64.7 885.2,64.7 885.2,64.7 885.3,64.7 885.4,64.7 885.4,64.7 885.5,64.7 885.6,64.7 885.6,64.7 885.7,64.7 885.8,64.7 885.9,64.7 885.9,64.7 886.0,64.7 886.1,64.7 886.1,64.7 886.2,64.7 886.3,64.7 886.3,64.7 886.4,64.7 886.5,64.7 886.5,64.7 886.6,64.7 886.7,64.7 886.8,64.7 886.8,64.7 886.9,64.7 887.0,64.7 887.0,64.7 887.1,64.7 887.2,64.7 887.2,64.7 887.3,64.7 887.4,64.7 887.5,64.7 887.5,64.7 887.6,64.7 887.7,64.7 887.7,64.7 887.8,64.7 887.9,64.7 887.9,64.7 888.0,64.7 888.1,64.7 888.1,64.7 888.2,64.7 888.3,64.7 888.4,64.7 888.4,64.7 888.5,64.7 888.6,64.7 888.6,64.7 888.7,64.7 888.8,64.7 888.8,64.7 888.9,64.7 889.0,64.7 889.1,64.7 889.1,64.7 889.2,64.7 889.3,64.7 889.3,64.7 889.4,64.7 889.5,64.7 889.5,64.7 889.6,64.7 889.7,64.7 889.7,64.7 889.8,64.7 889.9,64.7 890.0,64.7 890.0,64.7 890.1,64.7 890.2,64.7 890.2,64.7 890.3,64.7 890.4,64.7 890.4,64.7 890.5,64.7 890.6,64.7 890.7,64.7 890.7,64.7 890.8,64.7 890.9,64.7 890.9,64.7 891.0,64.7 891.1,64.7 891.1,64.7 891.2,64.7 891.3,64.7 891.4,64.7 891.4,64.7 891.5,64.7 891.6,64.7 891.6,64.7 891.7,64.7 891.8,64.7 891.8,64.7 891.9,64.7 892.0,64.7 892.0,64.7 892.1,64.7 892.2,64.7 892.3,64.7 892.3,64.7 892.4,64.7 892.5,64.7 892.5,64.7 892.6,64.7 892.7,64.7 892.7,64.7 892.8,64.7 892.9,64.7 893.0,64.7 893.0,64.7 893.1,64.7 893.2,64.7 893.2,64.7 893.3,64.7 893.4,64.7 893.4,64.7 893.5,64.7 893.6,64.7 893.6,64.7 893.7,64.7 893.8,64.7 893.9,64.7 893.9,64.7 894.0,64.7 894.1,64.7 894.1,64.7 894.2,64.7 894.3,64.7 894.3,64.7 894.4,64.7 894.5,64.7 894.6,64.7 894.6,64.7 894.7,64.7 894.8,64.7 894.8,64.7 894.9,64.7 895.0,64.7 895.0,64.7 895.1,64.7 895.2,64.7 895.3,64.7 895.3,64.7 895.4,64.7 895.5,64.7 895.5,64.7 895.6,64.7 895.7,64.7 895.7,64.7 895.8,64.7 895.9,64.7 895.9,64.7 896.0,64.7 896.1,64.7 896.2,64.7 896.2,64.7 896.3,64.7 896.4,64.7 896.4,64.7 896.5,64.7 896.6,64.7 896.6,64.7 896.7,64.7 896.8,64.7 896.9,64.7 896.9,64.7 897.0,64.7 897.1,64.7 897.1,64.7 897.2,64.7 897.3,64.7 897.3,64.7 897.4,64.7 897.5,64.7 897.5,64.7 897.6,64.7 897.7,64.7 897.8,64.7 897.8,64.7 897.9,64.7 898.0,64.7 898.0,64.7 898.1,64.7 898.2,64.7 898.2,64.7 898.3,64.7 898.4,64.7 898.5,64.7 898.5,64.7 898.6,64.7 898.7,64.7 898.7,64.7 898.8,64.7 898.9,64.7 898.9,64.7 899.0,64.7 899.1,64.7 899.1,64.7 899.2,64.7 899.3,64.7 899.4,64.7 899.4,64.7 899.5,64.7 899.6,64.7 899.6,64.7 899.7,64.7 899.8,64.7 899.8,64.7 899.9,64.7 900.0,64.7 900.1,64.7 900.1,64.7 900.2,64.7 900.3,64.7 900.3,64.7 900.4,64.7 900.5,64.7 900.5,64.7 900.6,64.7 900.7,64.7 900.8,64.7 900.8,64.7 900.9,64.7 901.0,64.7 901.0,64.7 901.1,64.7 901.2,64.7 901.2,64.7 901.3,64.7 901.4,64.7 901.4,64.7 901.5,64.7 901.6,64.7 901.7,64.7 901.7,64.7 901.8,64.7 901.9,64.7 901.9,64.7 902.0,64.7 902.1,64.7 902.1,64.7 902.2,64.7 902.3,64.7 902.4,64.7 902.4,64.7 902.5,64.7 902.6,64.7 902.6,64.7 902.7,64.7 902.8,64.7 902.8,64.7 902.9,64.7 903.0,64.7 903.0,64.7 903.1,64.7 903.2,64.7 903.3,64.7 903.3,64.7 903.4,64.7 903.5,64.7 903.5,64.7 903.6,64.7 903.7,64.7 903.7,64.7 903.8,64.7 903.9,64.7 904.0,64.7 904.0,64.7 904.1,65.4 904.2,65.4 904.2,65.4 904.3,65.4 904.4,65.4 904.4,65.4 904.5,65.4 904.6,65.4 904.6,65.4 904.7,65.4 904.8,65.4 904.9,65.4 904.9,65.4 905.0,65.4 905.1,65.4 905.1,65.4 905.2,65.4 905.3,65.4 905.3,65.4 905.4,65.4 905.5,65.4 905.6,65.4 905.6,65.4 905.7,65.4 905.8,65.4 905.8,65.4 905.9,65.4 906.0,65.4 906.0,65.4 906.1,65.4 906.2,65.4 906.3,66.1 906.3,66.1 906.4,66.1 906.5,66.1 906.5,66.1 906.6,66.1 906.7,66.8 906.7,67.5 906.8,67.5 906.9,68.2 906.9,68.2 907.0,68.2 907.1,68.2 907.2,68.2 907.2,68.2 907.3,68.2 907.4,68.2 907.4,68.2 907.5,68.2 907.6,68.2 907.6,68.2 907.7,68.2 907.8,68.2 907.9,68.2 907.9,68.2 908.0,68.9 908.1,68.9 908.1,68.9 908.2,68.9 908.3,68.9 908.3,68.9 908.4,68.9 908.5,69.6 908.5,69.6 908.6,69.6 908.7,69.6 908.8,69.6 908.8,69.6 908.9,70.3 909.0,70.3 909.0,70.3 909.1,70.3 909.2,70.3 909.2,70.3 909.3,70.3 909.4,70.3 909.5,70.3 909.5,70.3 909.6,70.9 909.7,70.9 909.7,70.9 909.8,70.9 909.9,70.9 909.9,70.9 910.0,70.9 910.1,70.9 910.1,70.9 910.2,70.9 910.3,70.9 910.4,70.9 910.4,70.9 910.5,70.9 910.6,70.9 910.6,70.9 910.7,71.6 910.8,72.3 910.8,72.3 910.9,72.3 911.0,72.3 911.1,73.0 911.1,73.0 911.2,73.0 911.3,73.0 911.3,73.0 911.4,73.0 911.5,73.0 911.5,73.0 911.6,73.0 911.7,73.0 911.8,73.0 911.8,73.0 911.9,73.0 912.0,73.0 912.0,73.0 912.1,73.0 912.2,73.0 912.2,73.0 912.3,73.0 912.4,73.0 912.4,73.7 912.5,73.7 912.6,73.7 912.7,74.4 912.7,74.4 912.8,74.4 912.9,74.4 912.9,74.4 913.0,75.1 913.1,75.1 913.1,75.1 913.2,75.1 913.3,75.1 913.4,75.1 913.4,75.1 913.5,75.1 913.6,75.1 913.6,75.1 913.7,75.1 913.8,75.1 913.8,75.1 913.9,75.1 914.0,75.1 914.0,75.1 914.1,75.1 914.2,75.1 914.3,75.1 914.3,75.1 914.4,75.1 914.5,75.1 914.5,75.1 914.6,75.1 914.7,75.1 914.7,75.1 914.8,75.1 914.9,75.1 915.0,75.8 915.0,75.8 915.1,76.5 915.2,76.5 915.2,76.5 915.3,76.5 915.4,76.5 915.4,76.5 915.5,76.5 915.6,76.5 915.6,77.2 915.7,77.9 915.8,77.9 915.9,78.6 915.9,78.6 916.0,78.6 916.1,78.6 916.1,78.6 916.2,78.6 916.3,79.3 916.3,79.3 916.4,79.3 916.5,79.3 916.6,79.3 916.6,79.3 916.7,80.0 916.8,80.0 916.8,80.0 916.9,80.0 917.0,80.0 917.0,80.0 917.1,80.7 917.2,80.7 917.3,81.4 917.3,81.4 917.4,81.4 917.5,81.4 917.5,81.4 917.6,81.4 917.7,81.4 917.7,82.0 917.8,82.0 917.9,82.0 917.9,82.7 918.0,82.7 918.1,82.7 918.2,82.7 918.2,83.4 918.3,84.1 918.4,84.8 918.4,84.8 918.5,84.8 918.6,84.8 918.6,84.8 918.7,84.8 918.8,84.8 918.9,84.8 918.9,84.8 919.0,85.5 919.1,85.5 919.1,85.5 919.2,85.5 919.3,85.5 919.3,85.5 919.4,85.5 919.5,85.5 919.5,85.5 919.6,85.5 919.7,85.5 919.8,85.5 919.8,85.5 919.9,85.5 920.0,85.5 920.0,85.5 920.1,85.5 920.2,85.5 920.2,85.5 920.3,85.5 920.4,85.5 920.5,85.5 920.5,85.5 920.6,85.5 920.7,85.5 920.7,86.2 920.8,86.2 920.9,86.2 920.9,86.2 921.0,86.2 921.1,86.2 921.2,86.2 921.2,86.2 921.3,86.2 921.4,86.2 921.4,86.9 921.5,86.9 921.6,87.6 921.6,87.6 921.7,87.6 921.8,87.6 921.8,87.6 921.9,87.6 922.0,87.6 922.1,87.6 922.1,87.6 922.2,87.6 922.3,88.3 922.3,88.3 922.4,88.3 922.5,88.3 922.5,88.3 922.6,89.0 922.7,89.0 922.8,89.0 922.8,89.7 922.9,89.7 923.0,89.7 923.0,89.7 923.1,89.7 923.2,89.7 923.2,89.7 923.3,89.7 923.4,89.7 923.4,89.7 923.5,89.7 923.6,89.7 923.7,90.4 923.7,90.4 923.8,90.4 923.9,90.4 923.9,90.4 924.0,90.4 924.1,90.4 924.1,90.4 924.2,90.4 924.3,91.1 924.4,91.1 924.4,91.1 924.5,91.1 924.6,91.1 924.6,91.1 924.7,91.1 924.8,91.1 924.8,91.1 924.9,91.1 925.0,91.1 925.0,91.1 925.1,91.1 925.2,91.8 925.3,91.8 925.3,91.8 925.4,91.8 925.5,91.8 925.5,91.8 925.6,91.8 925.7,91.8 925.7,91.8 925.8,91.8 925.9,91.8 926.0,91.8 926.0,91.8 926.1,91.8 926.2,91.8 926.2,92.4 926.3,92.4 926.4,92.4 926.4,92.4 926.5,93.1 926.6,93.1 926.7,93.1 926.7,93.1 926.8,93.1 926.9,93.1 926.9,93.1 927.0,93.8 927.1,93.8 927.1,93.8 927.2,93.8 927.3,94.5 927.3,94.5 927.4,94.5 927.5,95.2 927.6,95.2 927.6,95.9 927.7,96.6 927.8,97.3 927.8,98.0 927.9,98.0 928.0,98.7 928.0,98.7 928.1,98.7 928.2,98.7 928.3,98.7 928.3,98.7 928.4,99.4 928.5,100.1 928.5,100.1 928.6,100.1 928.7,100.8 928.7,100.8 928.8,100.8 928.9,100.8 928.9,101.5 929.0,101.5 929.1,101.5 929.2,102.2 929.2,102.2 929.3,102.2 929.4,102.8 929.4,103.5 929.5,103.5 929.6,104.2 929.6,104.9 929.7,105.6 929.8,106.3 929.9,107.0 929.9,107.0 930.0,107.7 930.1,108.4 930.1,109.1 930.2,109.1 930.3,109.1 930.3,109.1 930.4,109.8 930.5,110.5 930.5,110.5 930.6,110.5 930.7,111.2 930.8,111.2 930.8,111.2 930.9,111.2 931.0,111.2 931.0,111.9 931.1,112.6 931.2,112.6 931.2,113.2 931.3,113.2 931.4,113.2 931.5,113.9 931.5,114.6 931.6,114.6 931.7,114.6 931.7,114.6 931.8,114.6 931.9,114.6 931.9,115.3 932.0,115.3 932.1,115.3 932.2,115.3 932.2,115.3 932.3,115.3 932.4,116.0 932.4,116.0 932.5,116.0 932.6,116.0 932.6,116.0 932.7,116.7 932.8,117.4 932.8,117.4 932.9,117.4 933.0,117.4 933.1,117.4 933.1,117.4 933.2,118.1 933.3,118.1 933.3,118.1 933.4,118.1 933.5,118.1 933.5,118.1 933.6,118.1 933.7,118.8 933.8,118.8 933.8,118.8 933.9,118.8 934.0,118.8 934.0,118.8 934.1,118.8 934.2,119.5 934.2,119.5 934.3,120.2 934.4,120.9 934.4,120.9 934.5,120.9 934.6,120.9 934.7,120.9 934.7,121.6 934.8,121.6 934.9,122.3 934.9,122.3 935.0,122.3 935.1,123.0 935.1,123.6 935.2,124.3 935.3,124.3 935.4,125.0 935.4,125.0 935.5,125.7 935.6,125.7 935.6,125.7 935.7,125.7 935.8,126.4 935.8,127.1 935.9,127.8 936.0,127.8 936.0,127.8 936.1,127.8 936.2,128.5 936.3,129.2 936.3,129.2 936.4,129.2 936.5,129.2 936.5,129.2 936.6,129.9 936.7,129.9 936.7,129.9 936.8,129.9 936.9,130.6 937.0,131.3 937.0,131.3 937.1,131.3 937.2,131.3 937.2,132.0 937.3,132.0 937.4,132.0 937.4,132.7 937.5,132.7 937.6,133.4 937.7,133.4 937.7,134.1 937.8,134.1 937.9,134.7 937.9,134.7 938.0,135.4 938.1,136.1 938.1,136.1 938.2,136.8 938.3,136.8 938.3,136.8 938.4,137.5 938.5,138.2 938.6,138.2 938.6,138.2 938.7,138.9 938.8,138.9 938.8,139.6 938.9,140.3 939.0,141.0 939.0,141.0 939.1,141.7 939.2,141.7 939.3,141.7 939.3,142.4 939.4,142.4 939.5,143.1 939.5,143.1 939.6,143.8 939.7,144.5 939.7,144.5 939.8,145.1 939.9,145.1 939.9,145.1 940.0,145.8 940.1,145.8 940.2,146.5 940.2,146.5 940.3,147.2 940.4,147.2 940.4,147.2 940.5,147.2 940.6,147.2 940.6,147.9 940.7,147.9 940.8,148.6 940.9,148.6 940.9,148.6 941.0,148.6 941.1,149.3 941.1,149.3 941.2,150.0 941.3,150.7 941.3,151.4 941.4,152.1 941.5,152.1 941.5,152.1 941.6,152.1 941.7,152.8 941.8,153.5 941.8,154.2 941.9,154.2 942.0,154.2 942.0,154.9 942.1,154.9 942.2,155.5 942.2,155.5 942.3,156.2 942.4,156.9 942.5,156.9 942.5,157.6 942.6,158.3 942.7,158.3 942.7,158.3 942.8,159.0 942.9,159.7 942.9,160.4 943.0,160.4 943.1,160.4 943.2,160.4 943.2,160.4 943.3,161.1 943.4,161.1 943.4,161.8 943.5,161.8 943.6,161.8 943.6,162.5 943.7,162.5 943.8,162.5 943.8,163.2 943.9,163.9 944.0,164.6 944.1,165.3 944.1,165.3 944.2,165.9 944.3,166.6 944.3,167.3 944.4,167.3 944.5,168.0 944.5,168.7 944.6,169.4 944.7,169.4 944.8,170.1 944.8,170.8 944.9,170.8 945.0,171.5 945.0,172.2 945.1,172.9 945.2,172.9 945.2,172.9 945.3,172.9 945.4,173.6 945.4,174.3 945.5,175.0 945.6,175.0 945.7,175.7 945.7,175.7 945.8,175.7 945.9,175.7 945.9,175.7 946.0,176.4 946.1,177.0 946.1,177.0 946.2,177.7 946.3,178.4 946.4,179.1 946.4,179.1 946.5,179.8 946.6,179.8 946.6,180.5 946.7,181.2 946.8,181.9 946.8,182.6 946.9,182.6 947.0,182.6 947.1,182.6 947.1,183.3 947.2,184.0 947.3,184.0 947.3,184.0 947.4,184.0 947.5,184.7 947.5,185.4 947.6,186.1 947.7,186.1 947.7,186.8 947.8,186.8 947.9,187.4 948.0,188.1 948.0,188.1 948.1,188.8 948.2,189.5 948.2,190.2 948.3,190.2 948.4,190.9 948.4,190.9 948.5,191.6 948.6,192.3 948.7,192.3 948.7,192.3 948.8,193.0 948.9,193.0 948.9,193.0 949.0,193.7 949.1,194.4 949.1,195.1 949.2,195.1 949.3,195.8 949.3,196.5 949.4,196.5 949.5,197.2 949.6,197.8 949.6,198.5 949.7,199.2 949.8,199.9 949.8,200.6 949.9,201.3 950.0,201.3 950.0,202.0 950.1,202.7 950.2,202.7 950.3,203.4 950.3,203.4 950.4,203.4 950.5,204.1 950.5,204.1 950.6,204.8 950.7,204.8 950.7,205.5 950.8,205.5 950.9,205.5 950.9,206.2 951.0,206.2 951.1,206.9 951.2,206.9 951.2,206.9 951.3,207.6 951.4,207.6 951.4,208.2 951.5,208.9 951.6,208.9 951.6,209.6 951.7,210.3 951.8,210.3 951.9,210.3 951.9,211.0 952.0,211.7 952.1,211.7 952.1,211.7 952.2,212.4 952.3,212.4 952.3,213.1 952.4,213.8 952.5,214.5 952.6,215.2 952.6,215.9 952.7,215.9 952.8,215.9 952.8,216.6 952.9,217.3 953.0,217.3 953.0,217.3 953.1,217.3 953.2,218.0 953.2,218.6 953.3,218.6 953.4,219.3 953.5,220.0 953.5,220.0 953.6,220.7 953.7,220.7 953.7,220.7 953.8,220.7 953.9,221.4 953.9,221.4 954.0,222.1 954.1,222.1 954.2,222.1 954.2,222.8 954.3,223.5 954.4,224.2 954.4,224.9 954.5,224.9 954.6,224.9 954.6,225.6 954.7,225.6 954.8,226.3 954.8,226.3 954.9,227.0 955.0,227.0 955.1,227.0 955.1,227.0 955.2,227.7 955.3,228.4 955.3,228.4 955.4,228.4 955.5,229.1 955.5,229.1 955.6,229.1 955.7,229.7 955.8,230.4 955.8,230.4 955.9,231.1 956.0,231.8 956.0,231.8 956.1,232.5 956.2,232.5 956.2,233.2 956.3,233.2 956.4,233.2 956.4,233.2 956.5,233.2 956.6,233.2 956.7,233.2 956.7,233.2 956.8,233.2 956.9,233.9 956.9,234.6 957.0,235.3 957.1,236.0 957.1,236.0 957.2,236.7 957.3,236.7 957.4,236.7 957.4,236.7 957.5,237.4 957.6,237.4 957.6,237.4 957.7,237.4 957.8,238.1 957.8,238.1 957.9,238.1 958.0,238.8 958.1,239.5 958.1,240.1 958.2,240.8 958.3,241.5 958.3,241.5 958.4,242.2 958.5,242.2 958.5,242.9 958.6,242.9 958.7,242.9 958.7,242.9 958.8,242.9 958.9,242.9 959.0,243.6 959.0,243.6 959.1,243.6 959.2,243.6 959.2,244.3 959.3,245.0 959.4,245.0 959.4,245.0 959.5,245.0 959.6,245.0 959.7,245.0 959.7,245.0 959.8,245.0 959.9,245.0 959.9,245.0 960.0,245.0" fill="none" stroke="#16a34a" stroke-width="2"/>
<rect x="45" y="381.2" width="70" height="138.8" fill="#dc2626"/><text x="45" y="545" font-family="Arial" font-size="11">model</text>
<rect x="165" y="330.0" width="70" height="190.0" fill="#2563eb"/><text x="165" y="545" font-family="Arial" font-size="11">climatology</text></svg>